# xmcd
#
# Track frame offsets:
#	150
#	24679
#	41473
#	62185
#	81831
#	94213
#	114026
#	134509
#	156830
#	175992
#	194377
#	213867
#	234844
#	254424
#	276251
#	294957
#
# Disc length: 4197 seconds
#
# Revision: 1
# Processed by: cddbd v1.5.2PL0 Copyright (c) Steve Scherf et al.
# Submitted via: EasyCDDAExtractor 16.1.0.1
#
DISCID=de106310
DTITLE=Various Artist - album
DYEAR=1900
DGENRE=Blues
TTITLE0=track artist 1 - track title 1
TTITLE1=track artist 2 - track title 2
TTITLE2=track artist 3 - track title 3
TTITLE3=track artist 4 - track title 4
TTITLE4=track artist 5 - track title 5
TTITLE5=track artist 6 - track title 6
TTITLE6=track artist 7 - track title 7
TTITLE7=track artist 8 - track title 8
TTITLE8=track artist 9 - track title 9
TTITLE9=track artist 10 - track title 10
TTITLE10=track artist 11 - track title 11
TTITLE11=track artist 12 - track title 12
TTITLE12=track artist 13 - track title 13
TTITLE13=track artist 14 - track title 14
TTITLE14=track artist 15 - track title 15
TTITLE15=track artist 16 - track title 16
EXTD=
EXTT0=
EXTT1=
EXTT2=
EXTT3=
EXTT4=
EXTT5=
EXTT6=
EXTT7=
EXTT8=
EXTT9=
EXTT10=
EXTT11=
EXTT12=
EXTT13=
EXTT14=
EXTT15=
PLAYORDER=
